<?xml version="1.0" encoding="UTF-8" standalone="no"?>
<svg viewBox="0 0 32 32">
   <path
      d="M 26.696983,5.0913379 17.684971,15.746484 c -0.200449,0.235902 -0.321809,0.544075 -0.321809,0.880884 v 9.438817 l -2.727193,-1.363597 v -8.07522 c 0.0014,-0.309537 -0.104997,-0.623164 -0.321809,-0.880884 L 5.3021481,5.0913379 Z M 29.635534,2.3641442 H 2.3635969 c -0.7527055,0 -1.36359694,0.6108913 -1.36359694,1.3635968 0,0.3368084 0.12136014,0.6449813 0.32180894,0.8808836 L 11.908775,17.126444 v 8.418847 c 0,0.530439 0.302718,0.991335 0.754069,1.219056 l 5.454387,2.727193 c 0.673617,0.336809 1.493139,0.06409 1.829947,-0.609527 0.09818,-0.199086 0.144542,-0.410443 0.143178,-0.609528 V 17.126444 L 30.677322,4.6086246 C 31.164126,4.0331867 31.091856,3.1727571 30.516418,2.6873166 30.258698,2.4691411 29.945071,2.3627806 29.635534,2.3641442 Z" />
</svg>